<svg width="488" height="443" viewBox="0 0 488 443" fill="none" xmlns="http://www.w3.org/2000/svg">
<path d="M260.601 428.332V14.7055C260.549 5.5115 250.887 -0.202293 243.355 0.00548098C235.824 0.213255 227.045 5.82317 227.045 14.7055V428.799C227.045 437.526 237.59 442.824 244.031 442.564C252.238 442.253 258.886 437.422 260.601 428.28V428.332ZM185.023 364.441V77.713C184.919 67.8438 174.634 62.078 166.843 62.7533C157.441 63.5844 151.156 70.8564 151.156 80.8296V362.883C151.156 372.752 158.947 379.713 167.622 379.92C176.296 380.128 184.036 374.518 185.023 364.441ZM336.438 361.273V80.7777C336.438 70.8045 330.205 63.5324 320.751 62.7013C312.96 62.0261 302.623 67.8437 302.623 77.661V364.909C302.623 374.726 312.96 380.596 320.699 379.868C330.205 378.985 336.386 371.921 336.386 361.273H336.438ZM109.289 294.214V147.941C109.289 138.175 99.1082 132.358 91.1609 133.033C81.7591 133.812 75.5259 141.292 75.5259 151.057V291.565C75.5259 301.33 81.7591 308.81 91.1609 309.589C99.2121 310.264 109.289 304.55 109.289 294.214ZM412.068 291.097V151.109C412.068 141.292 405.835 133.864 396.433 133.085C388.486 132.409 378.305 138.227 378.305 147.993V294.681C378.305 304.446 388.486 310.316 396.381 309.589C405.887 308.758 412.068 301.486 412.068 291.097ZM33.6594 249.127V193.028C33.6594 183.678 24.6732 177.548 16.6219 177.704C7.94736 177.86 0 184.561 0 193.963V248.607C0 258.061 7.89541 264.658 16.6219 264.866C24.7771 265.021 33.6594 259.048 33.6594 249.127ZM487.594 248.192V194.015C487.594 184.613 479.646 177.964 470.972 177.756C462.973 177.6 453.934 183.678 453.934 192.976V249.594C453.934 258.944 462.869 265.073 470.92 264.866C479.698 264.658 487.594 258.113 487.594 248.192Z" fill="white"/>
<path d="M260.601 428.331C258.887 437.473 252.238 442.303 244.031 442.615C237.642 442.875 227.098 437.576 227.098 428.85V14.7562C227.098 5.87387 236.084 0.264036 243.356 0.0562623C250.628 -0.151512 260.549 5.56221 260.549 14.7562V428.382L260.601 428.331Z" fill="url(#paint0_linear_242_73)"/>
<path d="M185.023 364.44C184.036 374.517 176.244 380.127 167.622 379.919C158.999 379.711 151.156 372.751 151.156 362.881V80.828C151.156 70.8548 157.441 63.5828 166.843 62.7517C174.634 62.0764 184.971 67.8422 184.971 77.7114V364.44H185.023Z" fill="url(#paint1_linear_242_73)"/>
<path d="M336.438 361.272C336.438 371.92 330.257 378.985 320.751 379.868C312.96 380.595 302.675 374.725 302.675 364.908V77.6602C302.675 67.8428 313.012 62.0252 320.803 62.7005C330.257 63.5316 336.49 70.8037 336.49 80.7768V361.272H336.438Z" fill="url(#paint2_linear_242_73)"/>
<path d="M412.068 291.095C412.068 301.483 405.887 308.755 396.382 309.586C388.486 310.262 378.305 304.392 378.305 294.679V147.99C378.305 138.225 388.486 132.407 396.433 133.082C405.835 133.861 412.068 141.289 412.068 151.107V291.095Z" fill="url(#paint3_linear_242_73)"/>
<path d="M487.594 248.191C487.594 258.164 479.699 264.657 470.92 264.864C462.869 265.072 453.935 258.943 453.935 249.593V192.975C453.935 183.625 462.973 177.547 470.972 177.755C479.699 177.963 487.542 184.612 487.594 194.014V248.191Z" fill="url(#paint4_linear_242_73)"/>
<path d="M109.289 294.213C109.289 304.55 99.1602 310.264 91.1609 309.589C81.7591 308.809 75.5259 301.33 75.5259 291.564V151.057C75.5259 141.292 81.7591 133.812 91.1609 133.033C99.1082 132.357 109.289 138.175 109.289 147.94V294.213Z" fill="url(#paint5_linear_242_73)"/>
<path d="M33.6594 249.124C33.6594 258.994 24.7251 265.019 16.6219 264.863C7.89541 264.656 0 258.059 0 248.605V193.96C0 184.559 7.89541 177.858 16.6219 177.702C24.6732 177.546 33.6594 183.676 33.6594 193.025V249.124Z" fill="url(#paint6_linear_242_73)"/>
<defs>
<linearGradient id="paint0_linear_242_73" x1="243.849" y1="0.0507812" x2="243.849" y2="442.624" gradientUnits="userSpaceOnUse">
<stop stop-color="#63B9F7"/>
<stop offset="0.225962" stop-color="#6AA4FF"/>
<stop offset="0.504808" stop-color="#4F94FF"/>
<stop offset="0.740385" stop-color="#7195FF"/>
<stop offset="1" stop-color="#7E79FF"/>
</linearGradient>
<linearGradient id="paint1_linear_242_73" x1="168.089" y1="62.6982" x2="168.089" y2="379.924" gradientUnits="userSpaceOnUse">
<stop stop-color="#63B9F7"/>
<stop offset="0.225962" stop-color="#6AA4FF"/>
<stop offset="0.504808" stop-color="#4F94FF"/>
<stop offset="0.740385" stop-color="#7195FF"/>
<stop offset="1" stop-color="#7E79FF"/>
</linearGradient>
<linearGradient id="paint2_linear_242_73" x1="319.582" y1="62.6475" x2="319.582" y2="379.928" gradientUnits="userSpaceOnUse">
<stop stop-color="#63B9F7"/>
<stop offset="0.225962" stop-color="#6AA4FF"/>
<stop offset="0.504808" stop-color="#4F94FF"/>
<stop offset="0.740385" stop-color="#7195FF"/>
<stop offset="1" stop-color="#7E79FF"/>
</linearGradient>
<linearGradient id="paint3_linear_242_73" x1="395.187" y1="133.029" x2="395.187" y2="309.639" gradientUnits="userSpaceOnUse">
<stop stop-color="#63B9F7"/>
<stop offset="0.225962" stop-color="#6AA4FF"/>
<stop offset="0.504808" stop-color="#4F94FF"/>
<stop offset="0.740385" stop-color="#7195FF"/>
<stop offset="1" stop-color="#7E79FF"/>
</linearGradient>
<linearGradient id="paint4_linear_242_73" x1="470.764" y1="177.75" x2="470.764" y2="264.87" gradientUnits="userSpaceOnUse">
<stop stop-color="#63B9F7"/>
<stop offset="0.225962" stop-color="#6AA4FF"/>
<stop offset="0.504808" stop-color="#4F94FF"/>
<stop offset="0.740385" stop-color="#7195FF"/>
<stop offset="1" stop-color="#7E79FF"/>
</linearGradient>
<linearGradient id="paint5_linear_242_73" x1="92.4075" y1="132.979" x2="92.4075" y2="309.642" gradientUnits="userSpaceOnUse">
<stop stop-color="#63B9F7"/>
<stop offset="0.225962" stop-color="#6AA4FF"/>
<stop offset="0.504808" stop-color="#4F94FF"/>
<stop offset="0.740385" stop-color="#7195FF"/>
<stop offset="1" stop-color="#7E79FF"/>
</linearGradient>
<linearGradient id="paint6_linear_242_73" x1="16.8297" y1="177.699" x2="16.8297" y2="264.866" gradientUnits="userSpaceOnUse">
<stop stop-color="#63B9F7"/>
<stop offset="0.225962" stop-color="#6AA4FF"/>
<stop offset="0.504808" stop-color="#4F94FF"/>
<stop offset="0.740385" stop-color="#7195FF"/>
<stop offset="1" stop-color="#7E79FF"/>
</linearGradient>
</defs>
</svg>
