<svg width="452" height="334" viewBox="0 0 452 334" fill="none" xmlns="http://www.w3.org/2000/svg">
<path fill-rule="evenodd" clip-rule="evenodd" d="M443.416 7.96264C448.794 13.1757 451.88 20.3114 451.997 27.8C452.113 35.2887 449.25 42.517 444.037 47.8948L178.435 321.941C174.749 325.742 170.338 328.763 165.463 330.826C160.587 332.89 155.347 333.953 150.053 333.953C144.759 333.953 139.519 332.89 134.644 330.826C129.768 328.763 125.357 325.742 121.671 321.941L8.1161 204.799C5.50137 202.143 3.43822 198.996 2.04558 195.539C0.652952 192.082 -0.0416191 188.384 0.0019279 184.657C0.0454749 180.93 0.826281 177.249 2.29931 173.825C3.77235 170.402 5.90847 167.304 8.58454 164.71C11.2606 162.115 14.4237 160.077 17.8914 158.711C21.3592 157.345 25.063 156.679 28.7893 156.752C32.5156 156.824 36.1907 157.633 39.6027 159.133C43.0148 160.632 46.0963 162.792 48.6695 165.488L150.053 270.063L403.484 8.58393C408.697 3.20642 415.833 0.119936 423.321 0.00342193C430.81 -0.113092 438.038 2.74991 443.416 7.96264Z" fill="url(#paint0_linear_1080_3616)"/>
<defs>
<linearGradient id="paint0_linear_1080_3616" x1="305.5" y1="43" x2="379" y2="230.5" gradientUnits="userSpaceOnUse">
<stop stop-color="#55C0E6"/>
<stop offset="0.375" stop-color="#4CB3FF"/>
<stop offset="1" stop-color="#6492FF"/>
</linearGradient>
</defs>
</svg>
