<svg width="632" height="771" viewBox="0 0 632 771" fill="none" xmlns="http://www.w3.org/2000/svg">
<path d="M155.25 742.975C138.455 751.174 121.263 752.232 109.096 737.288C106.584 734.114 103.013 734.908 100.236 736.23C90.053 741.123 77.7542 739.801 69.026 732.66C62.2814 727.105 58.4463 718.906 58.843 710.442C59.7687 693.383 74.5801 683.068 92.83 683.596C95.4749 683.596 97.7232 681.084 97.8554 679.1C98.6489 670.107 73.2577 665.875 58.1817 677.249C39.9318 691.267 35.4354 716.922 48.3955 736.362C59.7686 753.554 80.928 760.696 101.162 754.612C118.486 771.672 146.39 770.217 161.73 751.703C163.581 749.455 162.92 746.149 161.73 744.826C160.408 743.239 157.366 742.049 155.118 743.107L155.25 742.975Z" fill="url(#paint0_linear_1040_3364)"/>
<path d="M92.7038 609.368C100.639 609.368 107.118 602.889 107.118 594.954C107.118 587.019 100.639 580.539 92.7038 580.539C84.769 580.539 78.2891 587.019 78.2891 594.954C78.2891 602.889 84.769 609.368 92.7038 609.368Z" fill="url(#paint1_linear_1040_3364)"/>
<path d="M14.4147 632.664C6.47998 632.664 0 639.144 0 647.079C0 655.014 6.47998 661.493 14.4147 661.493C22.3495 661.493 28.8294 655.014 28.8294 647.079C28.8294 639.144 22.3495 632.664 14.4147 632.664Z" fill="url(#paint2_linear_1040_3364)"/>
<path d="M598.545 0C581.75 0 571.038 10.9765 565.351 25.788L510.998 167.291L449.901 325.721C437.205 322.679 422.79 327.043 416.443 339.078L404.805 368.965C395.151 368.965 385.762 368.304 375.843 370.023C337.757 376.239 305.489 401.101 289.355 435.881C282.081 436.807 274.676 440.378 272.163 447.122L263.435 470.53C261.319 476.084 263.302 482.035 266.476 487.06C247.301 533.875 220.455 580.558 184.616 616.794C171.127 630.415 157.374 642.581 141.24 652.764C137.008 655.409 133.834 658.318 133.834 663.211C133.834 667.443 136.082 671.411 140.05 673.659L169.011 689.925C177.475 693.628 185.542 696.802 194.799 697.331L199.825 701.695C217.942 710.952 236.986 719.945 257.88 722.854C263.699 723.648 264.757 724.574 269.254 726.69C288.429 735.815 309.721 742.03 330.748 745.071C336.037 745.865 338.55 745.865 343.179 747.981C357.726 754.461 399.383 763.718 413.137 762.264C417.633 761.735 419.617 763.322 423.584 764.247C445.934 769.934 469.209 771.521 492.22 770.86C499.096 770.595 503.196 766.099 505.973 760.412C516.288 738.988 523.562 717.035 529.777 693.76C539.299 658.054 546.043 622.744 549.482 585.583C555.829 582.674 559.929 577.913 562.045 571.301L568.525 551.993C570.905 544.984 567.599 538.107 563.235 532.553C575.402 485.87 557.284 436.675 517.611 409.565L526.074 385.76C532.422 371.346 526.074 354.947 511.924 348.202L630.68 41.922C635.706 20.895 619.704 0.793328 598.413 0.264346L598.545 0ZM431.387 348.732C433.37 343.574 439.982 342.119 445.272 343.177L503.064 363.543C509.544 366.585 512.453 373.462 509.676 379.942L502.138 399.91L456.645 382.983L422.394 372.007L431.387 348.732ZM507.56 707.249C502.402 722.987 497.509 737.533 489.839 752.477C471.325 753.403 452.942 751.552 434.428 747.717C456.381 716.374 472.118 681.858 481.111 644.83L488.12 610.181C488.516 608.198 487.326 606.214 485.872 605.553C484.549 605.024 481.904 605.552 481.243 607.801C472.515 633.324 463.39 658.054 451.62 682.519C440.776 704.604 429.138 725.235 413.533 744.41C393.035 742.823 373.992 738.988 354.684 733.169C382.72 699.711 401.234 660.963 412.343 619.703C411.682 617.454 411.021 615.868 409.566 615.471C408.111 615.074 405.599 615.868 404.673 617.984C391.316 647.342 375.711 675.114 356.668 701.298L335.244 727.483C316.73 724.441 299.67 719.813 282.214 712.539C316.201 677.759 337.889 638.481 352.436 592.46C353.097 590.212 352.171 587.831 350.981 587.17C349.659 586.377 346.22 586.641 345.295 588.625C331.938 616 316.597 641.655 298.48 666.121C287.239 680.403 276.13 693.628 261.98 705.53C245.185 701.827 228.919 696.273 213.446 687.941C228.257 675.51 240.292 662.815 250.739 647.607C261.319 632.531 270.047 617.19 276.791 600.13C277.585 598.147 276.395 595.634 274.94 595.105C273.618 594.708 271.369 595.105 270.179 596.824C259.203 612.958 248.094 628.431 235.002 642.846C222.571 656.599 209.611 668.369 193.873 678.949C181.046 675.643 169.408 670.088 157.77 663.211C178.533 648.4 196.254 631.605 212.652 612.297C242.54 577.384 263.567 538.636 281.817 496.053L420.146 544.852L532.025 583.996C527.794 626.051 519.594 666.782 507.56 706.985V707.249ZM543.663 569.714L279.569 477.01L288.032 452.809L552.127 545.513L543.663 569.714ZM547.234 524.75L306.943 440.246C328.764 397.398 379.943 375.577 425.039 391.447L488.516 413.797C533.215 431.782 557.284 478.332 547.101 524.75H547.234ZM611.505 42.5831L495.526 341.723L466.564 331.54L484.417 284.196L550.408 114.26L584.659 25.92C587.965 17.4563 599.867 16.3986 605.818 19.9692C613.885 24.9945 615.869 33.9871 611.373 42.5831H611.505Z" fill="url(#paint3_linear_1040_3364)"/>
<defs>
<linearGradient id="paint0_linear_1040_3364" x1="127.376" y1="670.371" x2="104.738" y2="772.793" gradientUnits="userSpaceOnUse">
<stop stop-color="#51C4E5"/>
<stop offset="0.408654" stop-color="#55B2D9"/>
<stop offset="0.668269" stop-color="#3E9CF8"/>
<stop offset="1" stop-color="#608DFF"/>
</linearGradient>
<linearGradient id="paint1_linear_1040_3364" x1="98.7213" y1="580.539" x2="90.3565" y2="610.397" gradientUnits="userSpaceOnUse">
<stop stop-color="#51C4E5"/>
<stop offset="0.408654" stop-color="#55B2D9"/>
<stop offset="0.668269" stop-color="#3E9CF8"/>
<stop offset="1" stop-color="#608DFF"/>
</linearGradient>
<linearGradient id="paint2_linear_1040_3364" x1="20.4322" y1="632.664" x2="12.0674" y2="662.522" gradientUnits="userSpaceOnUse">
<stop stop-color="#51C4E5"/>
<stop offset="0.408654" stop-color="#55B2D9"/>
<stop offset="0.668269" stop-color="#3E9CF8"/>
<stop offset="1" stop-color="#608DFF"/>
</linearGradient>
<linearGradient id="paint3_linear_1040_3364" x1="486.622" y1="6.79894e-06" x2="172.148" y2="724.711" gradientUnits="userSpaceOnUse">
<stop stop-color="#51C4E5"/>
<stop offset="0.408654" stop-color="#55B2D9"/>
<stop offset="0.668269" stop-color="#3E9CF8"/>
<stop offset="1" stop-color="#608DFF"/>
</linearGradient>
</defs>
</svg>
