<svg width="567" height="727" viewBox="0 0 567 727" fill="none" xmlns="http://www.w3.org/2000/svg">
<path d="M238.581 714.385C168.507 693.433 129.254 643.528 104.393 576.746C95.5251 553.175 88.6921 530.187 82.1499 505.889C72.5547 470.679 60.3426 437.361 43.0421 405.351C30.3938 382.072 11.6395 361.412 4.37037 346.571C-3.91643 329.548 -0.281868 309.761 14.111 297.539C37.5175 277.606 73.2816 280.516 99.7412 295.502C138.849 318.781 158.766 364.467 176.503 405.351C170.688 357.92 161.674 312.816 149.462 267.567C143.21 244.724 135.651 223.482 127.945 201.366C118.641 174.595 108.028 141.422 117.042 115.669C123.729 96.4637 140.157 83.0781 160.366 82.0597C175.922 81.1867 190.024 85.1151 201.8 95.1543C225.642 115.524 240.617 148.842 252.538 177.796L241.925 112.614C239.308 96.6092 236.982 81.3322 236.401 65.0367C235.092 30.1177 254.283 0 290.483 0C324.211 0.581984 340.93 24.0068 349.508 54.8519C358.522 38.7019 373.787 30.5541 391.087 30.2631C409.26 29.9721 424.38 37.9744 435.429 52.3785C455.056 77.9858 464.069 124.69 464.505 157.136L465.087 206.168C470.902 174.304 484.423 138.803 520.478 142.441C552.607 146.514 564.965 180.269 567 210.533V249.234C565.11 282.408 559.295 313.98 552.026 346.28C548.391 362.43 544.175 377.562 544.03 394.294C542.867 474.462 544.03 565.543 503.177 636.254C481.224 674.374 446.914 702.891 404.753 716.422C355.614 732.135 288.593 729.371 238.872 714.53L238.581 714.385ZM350.671 284.008L351.689 244.724C351.689 190.018 345.147 114.36 329.591 62.5632C322.176 37.9744 308.656 16.441 282.923 22.2609C262.86 26.7712 256.173 51.6511 258.789 71.7295L264.314 113.923C267.658 139.676 272.165 164.265 274.491 190.163L283.504 287.063C306.329 282.989 328.137 283.28 350.816 284.008H350.671ZM437.028 302.922C441.244 257.964 444.588 215.188 443.57 171.249C442.989 143.75 439.064 117.852 430.922 92.0988C423.508 68.5285 408.097 45.3947 384.4 52.233C363.319 58.3438 359.685 82.3506 362.592 104.175C367.245 140.403 372.042 175.759 372.188 212.278L372.478 264.366L371.461 286.19C393.995 289.1 415.075 293.756 437.028 302.922ZM374.514 699.399C408.242 692.852 438.773 676.992 461.743 651.24C499.106 609.337 513.499 542.991 518.151 487.702C520.768 455.111 520.332 423.393 520.623 390.656C520.623 373.779 524.984 358.211 528.328 341.915C537.051 298.703 548.391 248.653 544.175 205.295C542.285 186.526 533.707 163.392 516.116 163.246C502.014 163.246 492.273 181.288 488.93 195.401L479.916 231.92L460.871 315.872C470.466 321.546 478.026 329.257 472.792 335.804C471.338 337.696 467.849 339.006 465.087 337.551C440.954 325.038 415.802 316.163 388.907 310.925C339.186 301.467 287.575 301.904 239.744 318.636C235.528 320.091 230.585 317.618 229.277 314.417C224.77 302.922 246.868 296.521 261.697 292.01C253.556 243.269 223.462 133.274 183.772 107.958C172.578 100.829 157.749 100.829 147.281 108.976C132.598 120.471 135.505 144.332 140.012 162.519C144.519 180.706 150.916 197.874 157.022 216.061C172.142 260.438 183.191 305.105 190.314 351.373L199.037 407.679C212.994 408.843 225.206 412.481 237.709 417.864C278.707 435.615 310.546 469.806 329.445 509.963C331.335 513.891 328.137 518.547 325.52 519.42C321.74 520.875 318.105 519.857 315.779 515.928C295.717 480.427 265.477 452.056 227.532 436.779C209.65 429.504 191.041 426.012 172.142 428.34C166.326 429.067 162.256 429.067 159.784 422.811C147.717 392.694 130.998 352.245 109.482 329.403C96.252 315.435 79.2423 306.269 60.0518 305.25C49.875 304.668 40.5706 305.978 32.1384 311.07C22.9793 316.599 19.4901 327.075 24.1424 336.823C27.1954 343.225 31.1207 348.899 35.6276 354.574C75.4623 404.333 92.0359 455.548 109.336 515.783C117.478 544.446 126.201 571.653 139.285 598.425C160.511 641.928 190.169 670.591 235.238 688.632C276.235 705.073 331.19 707.837 374.659 699.544L374.514 699.399Z" fill="url(#paint0_linear_1040_3179)"/>
<defs>
<linearGradient id="paint0_linear_1040_3179" x1="118.5" y1="77" x2="527" y2="727" gradientUnits="userSpaceOnUse">
<stop stop-color="#47D0DF"/>
<stop offset="0.5625" stop-color="#4C8FFA"/>
<stop offset="1" stop-color="#5A87F2"/>
</linearGradient>
</defs>
</svg>
