<svg width="521" height="521" viewBox="0 0 521 521" fill="none" xmlns="http://www.w3.org/2000/svg">
<path d="M260.5 0C404.37 0 521 116.63 521 260.5C521 404.37 404.37 521 260.5 521C116.63 521 0 404.37 0 260.5C0 116.63 116.63 0 260.5 0ZM260.5 34C135.408 34 34 135.408 34 260.5C34 385.592 135.408 487 260.5 487C385.592 487 487 385.592 487 260.5C487 135.408 385.592 34 260.5 34ZM392.565 296.113C394.524 296.132 396.522 296.487 398.501 297.211C403.868 299.18 408.386 304.084 409.506 310.455H409.467C410.239 314.857 409.389 318.603 407.768 322.503C404.331 330.65 400.122 338.219 395.025 345.517C380.777 365.904 361.779 382.276 339.692 393.783C325.946 400.927 311.234 406.024 296.059 409.268C285.513 411.525 274.851 412.759 264.183 412.967C263.518 412.98 262.854 412.989 262.189 412.994C262.033 412.995 261.877 412.997 261.721 412.998C248.742 413.062 235.768 411.603 223.001 408.611C193.693 401.777 167.475 388.493 145.427 367.989C131.835 355.363 119.98 339.068 112.76 321.962C110.404 316.402 110.249 310.146 113.3 304.934C115.386 301.358 118.458 298.8 121.965 297.402C126.192 295.709 131.055 295.711 135.581 297.636C140.832 299.875 143.69 304.161 145.891 309.258C150.408 319.683 157.282 328.72 165.236 336.867C173.693 345.516 183.461 352.506 194.157 358.182C214.409 368.973 237.421 374.437 260.438 374.495C260.448 374.495 260.457 374.495 260.467 374.495C261.097 374.497 261.727 374.494 262.356 374.487C262.576 374.485 262.796 374.482 263.016 374.479C263.388 374.473 263.761 374.465 264.134 374.457C285.911 373.961 307.555 368.623 326.718 358.375C337.684 352.506 347.608 345.324 356.219 336.365C363.941 328.334 370.544 319.414 375.062 309.22C376.567 305.822 377.881 303.003 380.776 300.493C384.095 297.653 388.217 296.071 392.526 296.113H392.565ZM255.9 227.629C260.881 226.084 265.901 227.166 269.878 230.294C273.546 233.151 275.863 237.708 275.863 242.728L275.748 277.325V277.286C275.748 277.299 275.747 277.312 275.747 277.325C275.747 285.704 268.295 291.844 260.456 291.96C255.435 292.034 250.477 289.573 247.562 285.632C245.905 283.417 244.896 280.73 244.896 277.75V241.414C244.896 234.966 250.031 229.444 255.9 227.629ZM157.204 146C178.53 146 195.818 163.288 195.818 184.613C195.818 205.939 178.53 223.227 157.204 223.227V223.228C156.205 223.228 155.214 223.189 154.233 223.114C136.584 221.771 122.252 208.563 119.194 191.449C118.797 189.23 118.59 186.946 118.59 184.613C118.59 181.834 118.886 179.122 119.445 176.509C123.169 159.075 138.659 146 157.204 146ZM363.517 146C382.51 146 398.301 159.715 401.526 177.781C401.923 179.999 402.13 182.282 402.13 184.613C402.13 185.887 402.066 187.146 401.945 188.388C400.08 207.617 384.112 222.718 364.513 223.215C364.182 223.223 363.85 223.228 363.517 223.228H363.516C342.19 223.227 324.902 205.939 324.902 184.613C324.903 163.288 342.19 146 363.516 146H363.517Z" fill="url(#paint0_linear_216_483)"/>
<defs>
<linearGradient id="paint0_linear_216_483" x1="260.5" y1="0" x2="260.5" y2="521" gradientUnits="userSpaceOnUse">
<stop offset="0.163462" stop-color="#63B8F7"/>
<stop offset="0.552885" stop-color="#69B4FF"/>
<stop offset="1" stop-color="#6293FF"/>
</linearGradient>
</defs>
</svg>
