<svg width="959" height="517" viewBox="0 0 959 517" fill="none" xmlns="http://www.w3.org/2000/svg">
<path d="M281.079 163.941C290.091 164.575 297.961 157.849 298.595 147.824L300.626 115.97C319.665 107.721 339.72 103.66 361.045 101.376C370.945 100.361 375.642 90.5891 374.119 82.2133C372.469 73.3299 364.599 68.6343 355.333 69.2688C337.943 70.5379 321.189 73.9644 304.688 79.802C307.861 59.8778 312.431 41.2227 317.635 22.1868C319.158 16.476 319.031 10.6384 315.35 5.94287C311.035 0.612823 304.053 -1.03693 297.707 0.612846C291.106 2.26262 287.553 7.21192 285.395 14.0648C271.814 56.4514 264.705 100.361 265.34 144.905C265.467 155.311 270.544 163.052 281.079 163.687V163.941Z" fill="url(#paint0_linear_1041_5140)"/>
<path d="M414.481 185.134C441.644 186.656 468.934 171.174 490.766 155.945C490.258 173.458 489.115 189.702 491.019 206.327C492.035 215.083 500.412 220.033 508.409 219.398C515.897 218.764 523.259 213.18 523.513 204.677L524.91 163.433C525.418 148.965 532.399 137.544 545.092 130.437C557.531 123.457 571.747 119.523 586.344 118.508C596.625 117.747 603.479 110.005 602.464 100.36C601.322 89.9541 592.436 85.0048 582.282 86.1469C563.623 88.1774 545.853 92.873 530.241 104.421L539.253 37.9228C540.015 32.4658 538.618 27.2626 535.445 23.7093C532.018 19.9021 527.195 18.2523 521.737 18.633C514.502 19.2676 507.902 23.9631 506.759 31.4505L495.335 105.944C479.088 126.249 446.087 151.123 421.082 152.011C414.354 152.265 410.038 147.95 409.658 141.351C409.277 133.61 410.419 125.995 412.704 118.508L423.112 85.1317C425.524 77.3904 421.843 69.0146 414.481 66.2227C404.454 62.2886 395.315 67.3649 391.507 76.8829C381.86 100.741 371.198 130.564 377.291 155.691C381.606 173.204 395.822 185.007 414.354 185.641L414.481 185.134Z" fill="url(#paint1_linear_1041_5140)"/>
<path d="M237.922 202.901C237.922 197.19 239.192 191.86 240.588 186.403C242.492 178.916 238.557 171.809 231.576 169.271C221.421 165.59 212.663 171.555 209.49 181.2C205.682 192.875 203.398 204.297 205.809 216.48C212.918 252.394 256.201 253.409 287.679 243.764C308.242 237.419 327.027 227.774 344.544 215.337C351.398 210.515 353.937 201.251 349.621 193.764C344.798 185.388 334.643 184.119 327.154 189.322C310.4 200.87 292.249 209.246 272.448 213.815C257.089 217.241 238.049 218.383 237.922 202.901Z" fill="url(#paint2_linear_1041_5140)"/>
<path d="M102.997 172.57C111.882 172.189 118.609 165.59 118.736 156.326L119.244 102.137C119.244 92.4923 120.767 83.7358 124.067 74.8524C141.203 62.4156 169.127 52.3901 188.928 58.3547C195.528 60.3852 199.717 65.8421 199.336 72.695C198.067 95.5381 167.096 128.28 149.072 144.904C140.314 147.696 136.252 156.072 138.156 164.067C140.06 172.189 147.93 177.773 156.434 175.869L174.077 171.808C194.894 166.225 215.33 161.021 236.781 158.103C245.92 156.834 252.139 150.234 251.758 141.097C251.505 133.102 244.777 126.122 235.892 126.376C225.865 126.757 216.599 129.041 206.444 130.564C221.549 111.274 235.384 87.2892 232.719 63.0502C231.323 50.2327 224.342 39.1918 213.172 32.5927C188.04 17.8717 150.849 24.217 125.59 39.4457C126.479 33.8618 125.971 29.0394 123.051 24.9784C120.386 21.425 115.943 19.2676 111.12 19.0138C101.981 18.6331 96.2691 24.5977 94.3652 33.1004C85.4801 73.5833 82.8147 114.828 85.734 156.199C86.3687 165.971 93.4768 172.824 103.25 172.443L102.997 172.57Z" fill="url(#paint3_linear_1041_5140)"/>
<path d="M611.602 275.872C587.993 265.973 560.704 271.049 541.918 288.435C530.621 298.842 523.64 312.421 522.752 327.903C521.482 348.97 533.668 367.498 553.469 374.859C587.232 387.295 626.327 370.163 638.258 335.898C646.762 311.532 635.465 285.897 611.602 275.872ZM604.368 334.376C595.737 346.558 579.87 350.746 566.415 345.543C557.023 341.99 553.088 332.599 556.007 323.081C559.688 311.279 570.478 303.664 582.917 302.522C591.675 301.761 600.94 304.172 606.017 311.659C610.587 318.385 609.318 327.269 604.368 334.248V334.376Z" fill="url(#paint4_linear_1041_5140)"/>
<path d="M766.584 325.238C762.522 345.924 771.534 365.975 789.939 376C808.217 385.899 830.302 384.63 848.072 372.701C863.05 362.675 872.951 347.573 877.774 330.695C885.136 304.679 874.728 275.618 847.945 268.892C811.517 259.628 773.692 288.562 766.584 325.238ZM836.268 298.841C843.249 299.857 847.819 305.314 848.454 312.674C849.596 324.603 844.646 336.406 835.761 344.908C828.653 351.634 819.514 354.426 810.502 352.142C801.617 349.858 796.539 341.609 797.809 332.345C800.474 314.07 818.244 296.176 836.141 298.968L836.268 298.841Z" fill="url(#paint5_linear_1041_5140)"/>
<path d="M727.745 120.032C740.438 118.763 751.735 114.321 762.524 108.356C759.478 133.991 755.797 156.581 755.035 180.439C754.782 185.642 755.924 190.464 759.478 193.891C762.524 196.81 766.586 198.46 771.663 198.333C778.771 198.079 786.26 193.003 787.275 185.008L800.603 81.4524L805.553 38.5582C806.696 29.0402 801.111 20.6644 791.972 19.3954C783.087 18.1263 774.456 23.5834 773.059 32.9744L769.252 57.8479C768.236 64.9546 762.778 70.4116 757.066 74.9802C747.546 82.4676 735.996 86.9093 723.81 88.9398C714.418 90.4627 708.452 97.6963 709.721 106.96C710.864 115.463 718.479 121.174 727.618 120.286L727.745 120.032Z" fill="url(#paint6_linear_1041_5140)"/>
<path d="M573.268 180.566C577.203 187.419 585.326 190.464 592.815 187.672C598.781 185.515 603.731 181.708 608.935 178.028C626.578 165.21 641.175 149.855 655.264 132.976C669.988 145.54 682.681 158.23 692.963 173.332C698.675 181.708 708.448 184.754 717.206 179.043C725.203 173.84 726.599 163.053 720.887 154.804C708.067 136.022 692.455 119.905 674.304 105.564C684.458 88.3052 692.708 70.4114 697.278 51.1218C698.928 44.2688 698.294 37.6698 693.09 32.8474C688.52 29.4209 683.316 27.898 677.096 29.4209C673.669 30.8168 668.338 33.6088 666.688 38.685C651.33 88.3052 620.105 130.819 577.33 160.388C570.729 164.956 569.714 174.474 573.268 180.693V180.566Z" fill="url(#paint7_linear_1041_5140)"/>
<path d="M373.231 321.304C351.145 304.679 315.097 305.568 289.457 315.339C279.81 319.02 276.003 330.441 281.207 339.071C284.634 344.782 291.107 347.447 297.454 345.67C312.939 341.228 332.233 338.182 346.449 344.401C354.446 347.954 357.872 355.822 355.588 364.325C347.845 392.879 312.939 421.179 288.95 438.819C282.222 443.768 282.476 453.92 286.665 459.758C291.234 466.103 300.501 468.134 307.609 463.438C331.598 447.575 352.796 427.905 370.185 404.808C376.658 396.305 381.482 387.549 385.417 377.777C393.667 357.218 391.001 334.629 373.104 321.05L373.231 321.304Z" fill="url(#paint8_linear_1041_5140)"/>
<path d="M517.546 372.954C517.926 366.228 513.23 357.98 505.36 357.345C485.178 355.568 465.25 360.898 447.607 371.432L459.285 307.471C461.062 297.699 454.208 289.324 444.434 288.943C434.914 288.562 428.822 294.781 427.045 303.664C420.063 338.055 413.463 371.812 408.767 406.838C406.101 426.382 404.832 445.164 404.578 464.834C404.451 474.86 410.036 482.728 419.937 483.236C429.076 483.616 436.183 477.271 437.072 467.626L440.499 425.62C442.784 397.828 478.07 388.818 503.964 387.929C512.214 387.676 517.419 380.696 517.8 373.208L517.546 372.954Z" fill="url(#paint9_linear_1041_5140)"/>
<path d="M664.534 390.721C665.042 385.645 662.884 381.203 659.584 378.158C656.157 374.985 651.587 373.589 646.891 374.731L600.308 385.772C571.114 392.752 542.681 399.985 512.98 404.173C503.079 405.569 496.098 411.915 497.114 422.067C498.002 431.331 506.38 437.803 516.153 436.153L562.355 428.285C558.166 448.971 548.52 466.611 534.811 481.332C529.227 487.043 529.1 496.053 534.05 501.51C539.254 507.348 548.012 508.363 554.867 503.541C578.729 482.474 592.311 451.89 595.484 420.29L653.364 405.062C660.092 403.285 664.28 397.574 664.661 390.721H664.534Z" fill="url(#paint10_linear_1041_5140)"/>
<path d="M721.906 287.166C717.972 281.455 710.864 279.425 704.137 281.075C697.917 282.598 693.728 287.928 692.078 294.907C684.209 327.522 679.512 360.518 677.101 394.148C676.847 398.462 675.958 401.254 673.419 404.554C661.234 419.91 638.133 427.651 618.712 431.712C610.208 433.489 605.258 440.722 606.401 448.971C607.543 456.712 614.016 462.804 623.155 461.535C641.687 458.87 658.315 452.017 674.181 443.006L674.816 474.225C675.958 482.728 683.955 487.55 691.951 486.789C699.44 486.154 706.549 480.317 706.675 471.687C706.929 432.727 708.833 394.528 714.291 355.822L724.191 300.364C724.953 295.796 724.445 291.1 721.906 287.293V287.166Z" fill="url(#paint11_linear_1041_5140)"/>
<path d="M953.425 409.377C946.444 404.3 937.431 405.569 932.1 412.422C915.346 434.25 880.313 443.641 852.389 444.91C865.463 430.57 874.855 414.199 880.059 395.671C882.471 386.914 879.298 378.538 870.921 375.366C863.686 372.701 854.419 376 851.246 383.995L841.726 408.107C835.253 420.417 826.368 431.077 814.69 438.945C798.189 432.093 792.605 416.103 795.778 398.463C796.666 393.513 795.778 388.945 792.478 385.138C789.939 382.219 785.751 380.315 781.181 380.315C773.185 380.315 767.98 385.518 765.823 392.752C759.73 413.945 765.061 435.519 781.816 451.382C767.981 454.301 754.399 453.54 740.818 450.748C732.694 449.098 725.205 454.428 723.682 462.423C722.159 470.926 726.855 478.413 735.359 480.824C761.887 488.058 791.716 482.728 816.34 471.307C853.912 479.555 896.434 472.068 929.562 453.159C939.717 447.321 948.856 440.342 955.583 431.077C960.914 423.717 959.899 414.199 953.298 409.377H953.425Z" fill="url(#paint12_linear_1041_5140)"/>
<path d="M137.774 361.406C142.852 340.466 145.517 320.035 144.501 299.095C143.994 289.45 134.728 283.359 125.843 285.136C118.862 286.278 113.403 291.481 112.642 298.588L109.342 331.583C80.9101 330.441 54.0008 341.989 34.5805 363.563C35.469 342.116 40.546 322.573 48.6695 303.791C51.5889 295.796 48.1621 287.42 40.2925 284.12C32.9306 281.075 24.1719 283.359 19.9833 290.339C3.9901 316.989 -1.9752 355.822 0.563401 386.914C1.32498 396.432 3.60956 405.062 7.54439 413.437C22.2682 444.91 61.4894 447.575 90.6833 430.697C115.562 416.356 130.92 389.198 137.902 361.152L137.774 361.406ZM58.4434 409.503C52.9854 409.757 48.2889 409.25 44.1002 405.95C50.1929 380.95 76.3402 364.833 102.615 363.563C97.0298 385.518 81.1638 406.838 58.4434 409.503Z" fill="url(#paint13_linear_1041_5140)"/>
<path d="M241.605 455.444C222.058 467.373 201.241 476.51 178.648 481.079C168.62 483.109 158.72 483.998 148.947 482.094C140.95 480.571 136.253 474.607 136.761 466.485C137.142 459.378 139.046 452.525 141.965 446.053C145.138 438.692 142.727 430.189 135.492 426.509C125.972 421.687 116.071 426.509 111.756 435.773C105.663 448.718 101.855 462.17 103.506 476.51C106.044 498.845 122.164 512.297 144.123 515.089C160.878 517.247 177.251 515.724 193.625 511.282C215.838 505.318 236.528 496.307 255.948 484.124C260.264 481.459 263.564 478.033 264.96 472.83C266.864 465.977 264.198 459.758 259.375 456.078C254.298 452.144 247.571 451.763 241.732 455.317L241.605 455.444Z" fill="url(#paint14_linear_1041_5140)"/>
<path d="M255.948 337.166C235.893 336.278 216.473 342.496 199.718 353.283L210.888 291.226C212.665 281.328 206.826 272.318 196.798 271.302C188.421 270.668 180.806 275.744 178.902 284.247C170.143 324.222 158.592 383.106 159.481 422.193C159.735 430.95 166.843 436.914 175.22 436.914C184.613 436.914 190.959 430.315 191.975 421.178L193.879 402.904C199.083 377.903 231.831 369.908 255.44 367.624C263.436 366.862 268.767 360.009 268.894 352.395C268.894 345.542 264.072 337.547 255.948 337.166Z" fill="url(#paint15_linear_1041_5140)"/>
<defs>
<linearGradient id="paint0_linear_1041_5140" x1="265.301" y1="4.78923" x2="398.042" y2="28.869" gradientUnits="userSpaceOnUse">
<stop stop-color="#91E0FF"/>
<stop offset="0.201923" stop-color="#48C9E3"/>
<stop offset="0.389423" stop-color="#49B6E9"/>
<stop offset="0.557692" stop-color="#4AAFED"/>
<stop offset="1" stop-color="#4F8DF8"/>
</linearGradient>
<linearGradient id="paint1_linear_1041_5140" x1="375.503" y1="24.4462" x2="636.103" y2="104.765" gradientUnits="userSpaceOnUse">
<stop stop-color="#91E0FF"/>
<stop offset="0.201923" stop-color="#48C9E3"/>
<stop offset="0.389423" stop-color="#49B6E9"/>
<stop offset="0.557692" stop-color="#4AAFED"/>
<stop offset="1" stop-color="#4F8DF8"/>
</linearGradient>
<linearGradient id="paint2_linear_1041_5140" x1="204.818" y1="170.531" x2="353.023" y2="244.024" gradientUnits="userSpaceOnUse">
<stop stop-color="#91E0FF"/>
<stop offset="0.201923" stop-color="#48C9E3"/>
<stop offset="0.389423" stop-color="#49B6E9"/>
<stop offset="0.557692" stop-color="#4AAFED"/>
<stop offset="1" stop-color="#4F8DF8"/>
</linearGradient>
<linearGradient id="paint3_linear_1041_5140" x1="84.6006" y1="23.5891" x2="278.409" y2="79.7691" gradientUnits="userSpaceOnUse">
<stop stop-color="#91E0FF"/>
<stop offset="0.201923" stop-color="#48C9E3"/>
<stop offset="0.389423" stop-color="#49B6E9"/>
<stop offset="0.557692" stop-color="#4AAFED"/>
<stop offset="1" stop-color="#4F8DF8"/>
</linearGradient>
<linearGradient id="paint4_linear_1041_5140" x1="522.661" y1="274.019" x2="659.275" y2="314.844" gradientUnits="userSpaceOnUse">
<stop stop-color="#91E0FF"/>
<stop offset="0.201923" stop-color="#48C9E3"/>
<stop offset="0.389423" stop-color="#49B6E9"/>
<stop offset="0.557692" stop-color="#4AAFED"/>
<stop offset="1" stop-color="#4F8DF8"/>
</linearGradient>
<linearGradient id="paint5_linear_1041_5140" x1="765.623" y1="270.521" x2="899.669" y2="306.745" gradientUnits="userSpaceOnUse">
<stop stop-color="#91E0FF"/>
<stop offset="0.201923" stop-color="#48C9E3"/>
<stop offset="0.389423" stop-color="#49B6E9"/>
<stop offset="0.557692" stop-color="#4AAFED"/>
<stop offset="1" stop-color="#4F8DF8"/>
</linearGradient>
<linearGradient id="paint6_linear_1041_5140" x1="709.552" y1="24.4449" x2="827.851" y2="41.7586" gradientUnits="userSpaceOnUse">
<stop stop-color="#91E0FF"/>
<stop offset="0.201923" stop-color="#48C9E3"/>
<stop offset="0.389423" stop-color="#49B6E9"/>
<stop offset="0.557692" stop-color="#4AAFED"/>
<stop offset="1" stop-color="#4F8DF8"/>
</linearGradient>
<linearGradient id="paint7_linear_1041_5140" x1="571.251" y1="33.4998" x2="751.389" y2="80.5391" gradientUnits="userSpaceOnUse">
<stop stop-color="#91E0FF"/>
<stop offset="0.201923" stop-color="#48C9E3"/>
<stop offset="0.389423" stop-color="#49B6E9"/>
<stop offset="0.557692" stop-color="#4AAFED"/>
<stop offset="1" stop-color="#4F8DF8"/>
</linearGradient>
<linearGradient id="paint8_linear_1041_5140" x1="278.87" y1="312.936" x2="413.426" y2="338.765" gradientUnits="userSpaceOnUse">
<stop stop-color="#91E0FF"/>
<stop offset="0.201923" stop-color="#48C9E3"/>
<stop offset="0.389423" stop-color="#49B6E9"/>
<stop offset="0.557692" stop-color="#4AAFED"/>
<stop offset="1" stop-color="#4F8DF8"/>
</linearGradient>
<linearGradient id="paint9_linear_1041_5140" x1="404.576" y1="294.602" x2="543.365" y2="316.651" gradientUnits="userSpaceOnUse">
<stop stop-color="#91E0FF"/>
<stop offset="0.201923" stop-color="#48C9E3"/>
<stop offset="0.389423" stop-color="#49B6E9"/>
<stop offset="0.557692" stop-color="#4AAFED"/>
<stop offset="1" stop-color="#4F8DF8"/>
</linearGradient>
<linearGradient id="paint10_linear_1041_5140" x1="497.016" y1="378.199" x2="685.223" y2="443.242" gradientUnits="userSpaceOnUse">
<stop stop-color="#91E0FF"/>
<stop offset="0.201923" stop-color="#48C9E3"/>
<stop offset="0.389423" stop-color="#49B6E9"/>
<stop offset="0.557692" stop-color="#4AAFED"/>
<stop offset="1" stop-color="#4F8DF8"/>
</linearGradient>
<linearGradient id="paint11_linear_1041_5140" x1="606.238" y1="286.547" x2="751.337" y2="309.224" gradientUnits="userSpaceOnUse">
<stop stop-color="#91E0FF"/>
<stop offset="0.201923" stop-color="#48C9E3"/>
<stop offset="0.389423" stop-color="#49B6E9"/>
<stop offset="0.557692" stop-color="#4AAFED"/>
<stop offset="1" stop-color="#4F8DF8"/>
</linearGradient>
<linearGradient id="paint12_linear_1041_5140" x1="723.397" y1="377.661" x2="943.844" y2="506.794" gradientUnits="userSpaceOnUse">
<stop stop-color="#91E0FF"/>
<stop offset="0.201923" stop-color="#48C9E3"/>
<stop offset="0.389423" stop-color="#49B6E9"/>
<stop offset="0.557692" stop-color="#4AAFED"/>
<stop offset="1" stop-color="#4F8DF8"/>
</linearGradient>
<linearGradient id="paint13_linear_1041_5140" x1="4.73138e-07" y1="287.42" x2="171.214" y2="330.129" gradientUnits="userSpaceOnUse">
<stop stop-color="#91E0FF"/>
<stop offset="0.201923" stop-color="#48C9E3"/>
<stop offset="0.389423" stop-color="#49B6E9"/>
<stop offset="0.557692" stop-color="#4AAFED"/>
<stop offset="1" stop-color="#4F8DF8"/>
</linearGradient>
<linearGradient id="paint14_linear_1041_5140" x1="103.12" y1="427.281" x2="268.487" y2="507.382" gradientUnits="userSpaceOnUse">
<stop stop-color="#91E0FF"/>
<stop offset="0.201923" stop-color="#48C9E3"/>
<stop offset="0.389423" stop-color="#49B6E9"/>
<stop offset="0.557692" stop-color="#4AAFED"/>
<stop offset="1" stop-color="#4F8DF8"/>
</linearGradient>
<linearGradient id="paint15_linear_1041_5140" x1="159.433" y1="276.087" x2="292.672" y2="300.091" gradientUnits="userSpaceOnUse">
<stop stop-color="#91E0FF"/>
<stop offset="0.201923" stop-color="#48C9E3"/>
<stop offset="0.389423" stop-color="#49B6E9"/>
<stop offset="0.557692" stop-color="#4AAFED"/>
<stop offset="1" stop-color="#4F8DF8"/>
</linearGradient>
</defs>
</svg>
